<?xml version="1.0" encoding="utf-8"?>
<!-- Generator: Adobe Illustrator 16.0.0, SVG Export Plug-In . SVG Version: 6.00 Build 0)  -->
<!DOCTYPE svg PUBLIC "-//W3C//DTD SVG 1.1//EN" "http://www.w3.org/Graphics/SVG/1.1/DTD/svg11.dtd">
<svg version="1.1" id="Layer_1" xmlns="http://www.w3.org/2000/svg" xmlns:xlink="http://www.w3.org/1999/xlink" x="0px" y="0px"
	 width="612px" height="792px" viewBox="0 0 612 792" enable-background="new 0 0 612 792" xml:space="preserve">
<path fill="#69CBEF" d="M545.432,535.078l-161.92,50.908c-113.172,35.584-234.2-27.545-269.782-140.717
	c-35.583-113.172,27.544-234.201,140.717-269.783l161.919-50.91c37.79-11.881,55.241,16.288,67.122,54.077
	c11.882,37.789,13.689,70.875-24.1,82.757L297.469,312.32c-37.721,11.86-58.766,52.208-46.906,89.928
	c11.86,37.719,52.207,58.766,89.927,46.904l161.92-50.908c37.79-11.881,55.24,16.289,67.122,54.076
	C581.413,490.109,583.222,523.195,545.432,535.078z"/>
<path d="M204.029,524.133c-11.2-7.221-21.456-15.863-30.492-25.688c-2.259-2.465-5.463-3.861-8.798-3.861
	c-3,0-5.881,1.113-8.092,3.145c-4.854,4.457-5.164,12.035-0.705,16.891c10.411,11.33,22.233,21.287,35.13,29.607
	c1.936,1.242,4.171,1.9,6.466,1.9c4.088,0,7.841-2.043,10.053-5.475C211.166,535.105,209.563,527.693,204.029,524.133z"/>
<path d="M137.785,455.281c-1.853,0-3.622,0.42-5.283,1.244c-2.868,1.412-5.007,3.861-6.037,6.885
	c-1.028,3.023-0.813,6.264,0.61,9.121c2.02,4.111,6.132,6.67,10.722,6.67c1.841,0,3.622-0.42,5.285-1.242
	c5.904-2.918,8.342-10.102,5.425-16.008C146.475,457.84,142.363,455.281,137.785,455.281z"/>
<path d="M587.847,505.674c2.847-14.795,0.651-32.887-6.911-56.938c-7.563-24.053-16.115-40.146-26.915-50.65
	c-14.747-14.34-33.317-18.123-55.195-11.244l-161.92,50.908c-31.438,9.885-65.056-7.65-74.94-39.088s7.65-65.055,39.087-74.939
	l161.92-50.91c21.879-6.879,34.942-20.609,38.83-40.806c2.846-14.795,0.65-32.887-6.912-56.938
	c-7.563-24.052-16.115-40.146-26.915-50.65c-14.747-14.34-33.316-18.123-55.195-11.244l-161.919,50.91
	c-119.464,37.561-186.095,165.307-148.535,284.77c37.562,119.465,165.307,186.098,284.771,148.535l161.92-50.908
	C570.896,539.602,583.959,525.871,587.847,505.674z M419.951,135.98c20.533-6.456,37.257-1.06,52.134,46.258
	c14.878,47.318,4.25,61.313-16.282,67.769l-45.611,14.341L374.34,150.321L419.951,135.98z M258.031,186.889l93.503-29.398
	l35.852,114.028l-93.503,29.398c-40.14,12.621-64.075,52.88-57.481,93.253l-114.51,36.002
	C95.871,326.711,154.972,219.292,258.031,186.889z M379.928,574.584c-103.06,32.402-212.999-21.867-250.866-121.605l114.51-36.004
	c17.698,36.883,60.364,56.201,100.503,43.582l93.503-29.398l35.853,114.027L379.928,574.584z M496.235,538.016l-35.852-114.027
	l45.611-14.34c20.532-6.457,37.257-1.061,52.134,46.258s4.25,61.313-16.282,67.768L496.235,538.016z"/>
<circle fill="#F49A00" cx="273.124" cy="426.175" r="67.32"/>
<circle fill="#ED261F" cx="273.124" cy="275.256" r="67.32"/>
<circle fill="#77B227" cx="273.124" cy="577.094" r="67.32"/>
<path fill="#FFA522" d="M318.738,145.207L465.414,662.01H85.082l146.675-516.803C244.567,99.598,305.93,99.598,318.738,145.207z"/>
<g>
	<polygon fill="#FFFFFF" points="104.27,594.404 446.227,594.404 417.854,494.438 132.641,494.438 	"/>
	<polygon fill="#FFFFFF" points="159.936,398.264 390.56,398.264 362.202,298.347 188.294,298.347 	"/>
</g>
<path fill="#EE151F" d="M497.046,698.02H53.451c-9.944,0-18.006-8.061-18.006-18.006l0,0c0-9.943,8.063-18.006,18.006-18.006
	h443.596c9.943,0,18.006,8.063,18.006,18.006l0,0C515.052,689.959,506.99,698.02,497.046,698.02z"/>
<path d="M497.046,649.518h-22.195L330.763,141.822c-7.393-26.311-29.182-43.312-55.515-43.312
	c-26.334,0-48.125,17.003-55.505,43.285L75.644,649.518H53.449c-16.814,0-30.495,13.682-30.495,30.496s13.679,30.496,30.496,30.496
	h443.596c16.814,0,30.494-13.68,30.494-30.496S513.862,649.518,497.046,649.518z M243.781,148.583
	c5.197-18.501,19.662-25.093,31.467-25.093s26.27,6.592,31.467,25.093c0.002,0.011,0.006,0.023,0.008,0.032l38.951,137.242H204.821
	L243.781,148.583z M197.732,310.837h155.032l13.73,48.375l7.538,26.563H176.464L197.732,310.837z M169.373,410.754h211.749
	l20.204,71.191H149.169L169.373,410.754z M142.08,506.928h266.337l0.744,2.623l20.537,72.363H120.797L142.08,506.928z
	 M113.708,606.893h323.082l12.098,42.625H101.61L113.708,606.893z M497.046,685.531H53.451c-3.041,0-5.517-2.475-5.517-5.518
	c0-3.041,2.475-5.516,5.517-5.516h31.633h380.332h31.633c3.041,0,5.517,2.475,5.517,5.516
	C502.562,683.057,500.088,685.531,497.046,685.531z"/>
<path d="M371.376,564.379H250.061c-6.898,0-12.49-5.592-12.49-12.488c0-6.898,5.592-12.49,12.49-12.49h121.315
	c6.896,0,12.488,5.592,12.488,12.49C383.864,558.787,378.272,564.379,371.376,564.379z"/>
</svg>
